# xmcd CD database file
#
# Track frame offsets:
#	150
#	64719
#	116159
#	172841
#
# Disc length: 3349 seconds
#
# Revision: 0
# Processed by: cddbd v1.5.1PL2 Copyright (c) Steve Scherf et al.
# Submitted via: CDex 1.51
#
DISCID=2d0d1304
DTITLE=Miles Davis - The Night Before Agharta/Pangaea (Second Set)
DYEAR=1900
DGENRE=Jazz
TTITLE0=RIght Off
TTITLE1=For Dave
TTITLE2=Mtume
TTITLE3=Agharta Prelude
EXTD=
EXTT0=
EXTT1=
EXTT2=
EXTT3=
PLAYORDER=
